<mxfile host="app.diagrams.net" modified="2024-07-16T07:26:59.006Z" agent="Mozilla/5.0 (Macintosh; Intel Mac OS X 10_15_7) AppleWebKit/537.36 (KHTML, like Gecko) Chrome/126.0.0.0 Safari/537.36" version="24.6.5" etag="qoifhWNph59hQR7MWuSY" type="github">
  <diagram name="第 1 页" id="K7-x6kNnVdq6XNbU0Nt9">
    <mxGraphModel>
      <root>
        <mxCell id="0" />
        <mxCell id="1" parent="0" />
      </root>
    </mxGraphModel>
  </diagram>
</mxfile>
